# xmcd
#
# Track frame offsets: 
#        150
#        11541
#        26628
#        41007
#        52512
#        67237
#        82107
#        93130
#        108363
#        128511
#        146278
#        171325
#        196978
#        213677
#        218839
#        226331
#        235456
#        248385
#        268896
#        290032
#        310637
#
# Disc length: 4330 seconds
#
# Revision: 7
# Processed by: cddbd v1.5.2PL0 Copyright (c) Steve Scherf et al.
# Submitted via: ExactAudioCopy v0.99pb4
#
DISCID=2810e815
DTITLE=Fats Waller - Ain't Misbehavin  [CD 10-10]
DYEAR=2005
DGENRE=Jazz, Swing
TTITLE0=You Must Be Losing Your Mind
TTITLE1=The Jitterbug Waltz
TTITLE2=By The Light Of The Silvery Moon
TTITLE3=Swing Out To Victory
TTITLE4=Up Jumped You With Love
TTITLE5=Romance A La Mode
TTITLE6=That's What The Well-Dressed Man In Harlem Will Wear
TTITLE7=That Ain't Right
TTITLE8=Moppin' And Boppin'
TTITLE9=Ain't Misbehavin'  (1942-43)
TTITLE10=Ain't Misbehavin' - Two Sleepy People
TTITLE11=Slightly Less Than Wonderful - There's A Gal In My Life
TTITLE12=This Is So Nice It Must Be Illegal - Martinique
TTITLE13=Waller Jive
TTITLE14=Hallelujah
TTITLE15=That's What The Bird Said To Me
TTITLE16=Reefer Man
TTITLE17=Solitude
TTITLE18=Bouncin' On A V-Disc
TTITLE19=Sometimes I Feel Like A Motherless Child
TTITLE20=Really Fine
EXTD=
EXTT0=
EXTT1=
EXTT2=
EXTT3=
EXTT4=
EXTT5=
EXTT6=
EXTT7=
EXTT8=
EXTT9=
EXTT10=
EXTT11=
EXTT12=
EXTT13=
EXTT14=
EXTT15=
EXTT16=
EXTT17=
EXTT18=
EXTT19=
EXTT20=
PLAYORDER=
